<svg width="2559" height="581" viewBox="0 0 2559 581" fill="none" xmlns="http://www.w3.org/2000/svg">
<path d="M256 546C397.385 546 512 431.385 512 290C512 148.615 397.385 34 256 34C114.615 34 0 148.615 0 290C0 431.385 114.615 546 256 546Z" fill="#F37826"/>
<path d="M367 410H247.99C182.388 410 129 356.608 129 290.989C129 225.392 182.388 172 247.992 172C313.612 172 367 225.392 367 290.989V410Z" fill="white" stroke="white" stroke-width="6"/>
<path d="M642.49 400.684L642.639 324.558H651.873L725.15 237.705H797.98L699.533 352.714H684.49L642.49 400.684ZM585 466.531V161.43H648.447V466.531H585ZM727.98 466.531L660.66 366.867L702.958 322.025L802.3 466.531H727.98Z" fill="white"/>
<path d="M923.051 471C899.916 471 879.908 466.084 863.029 456.251C846.249 446.32 833.291 432.515 824.156 414.836C815.021 397.059 810.454 376.451 810.454 353.012C810.454 329.374 815.021 308.717 824.156 291.038C833.291 273.261 846.249 259.456 863.029 249.623C879.908 239.692 899.916 234.726 923.051 234.726C946.186 234.726 966.143 239.692 982.923 249.623C999.803 259.456 1012.81 273.261 1021.95 291.038C1031.08 308.717 1035.65 329.374 1035.65 353.012C1035.65 376.451 1031.08 397.059 1021.95 414.836C1012.81 432.515 999.803 446.32 982.923 456.251C966.143 466.084 946.186 471 923.051 471ZM923.348 421.838C933.873 421.838 942.661 418.859 949.71 412.9C956.76 406.841 962.072 398.598 965.647 388.17C969.321 377.742 971.157 365.873 971.157 352.565C971.157 339.256 969.321 327.388 965.647 316.96C962.072 306.532 956.76 298.288 949.71 292.23C942.661 286.172 933.873 283.143 923.348 283.143C912.724 283.143 903.788 286.172 896.54 292.23C889.391 298.288 883.979 306.532 880.306 316.96C876.731 327.388 874.944 339.256 874.944 352.565C874.944 365.873 876.731 377.742 880.306 388.17C883.979 398.598 889.391 406.841 896.54 412.9C903.788 418.859 912.724 421.838 923.348 421.838Z" fill="white"/>
<path d="M1140.35 334.241V466.531H1076.9V237.705H1137.37V278.077H1140.05C1145.12 264.769 1153.61 254.241 1165.52 246.495C1177.44 238.649 1191.88 234.726 1208.86 234.726C1224.75 234.726 1238.6 238.202 1250.41 245.154C1262.23 252.106 1271.42 262.038 1277.97 274.949C1284.52 287.761 1287.8 303.056 1287.8 320.833V466.531H1224.35V332.155C1224.45 318.152 1220.88 307.227 1213.63 299.381C1206.38 291.436 1196.4 287.463 1183.69 287.463C1175.15 287.463 1167.61 289.3 1161.05 292.975C1154.6 296.65 1149.53 302.013 1145.86 309.064C1142.29 316.016 1140.45 324.409 1140.35 334.241Z" fill="white"/>
<path d="M1542.89 237.705L1462.91 466.531H1391.42L1311.44 237.705H1378.46L1425.97 401.429H1428.36L1475.72 237.705H1542.89Z" fill="white"/>
<path d="M1672.24 471C1648.71 471 1628.46 466.233 1611.48 456.698C1594.6 447.065 1581.59 433.458 1572.45 415.879C1563.32 398.201 1558.75 377.295 1558.75 353.161C1558.75 329.623 1563.32 308.965 1572.45 291.187C1581.59 273.41 1594.45 259.555 1611.03 249.623C1627.71 239.692 1647.27 234.726 1669.71 234.726C1684.8 234.726 1698.85 237.159 1711.86 242.026C1724.97 246.793 1736.39 253.993 1746.12 263.627C1755.95 273.261 1763.59 285.377 1769.05 299.977C1774.51 314.477 1777.24 331.46 1777.24 350.926V368.356H1584.07V329.027H1717.52C1717.52 319.89 1715.53 311.795 1711.56 304.744C1707.59 297.692 1702.08 292.18 1695.03 288.208C1688.08 284.136 1679.99 282.1 1670.75 282.1C1661.12 282.1 1652.58 284.334 1645.14 288.804C1637.79 293.174 1632.03 299.083 1627.86 306.532C1623.69 313.881 1621.55 322.075 1621.46 331.113V368.505C1621.46 379.827 1623.54 389.61 1627.71 397.853C1631.98 406.097 1637.99 412.453 1645.73 416.922C1653.48 421.391 1662.66 423.626 1673.29 423.626C1680.34 423.626 1686.79 422.633 1692.65 420.646C1698.51 418.66 1703.52 415.681 1707.69 411.708C1711.86 407.735 1715.04 402.869 1717.22 397.108L1775.9 400.982C1772.92 415.085 1766.82 427.4 1757.58 437.928C1748.45 448.356 1736.63 456.5 1722.14 462.359C1707.74 468.12 1691.11 471 1672.24 471Z" fill="white"/>
<path d="M1818.65 466.531V237.705H1880.16V277.631H1882.54C1886.71 263.428 1893.71 252.702 1903.54 245.452C1913.37 238.103 1924.69 234.428 1937.5 234.428C1940.68 234.428 1944.1 234.626 1947.78 235.024C1951.45 235.421 1954.68 235.967 1957.46 236.662V292.975C1954.48 292.081 1950.36 291.287 1945.1 290.591C1939.83 289.896 1935.02 289.549 1930.65 289.549C1921.32 289.549 1912.98 291.585 1905.63 295.656C1898.38 299.629 1892.62 305.191 1888.35 312.342C1884.18 319.492 1882.1 327.736 1882.1 337.072V466.531H1818.65Z" fill="white"/>
<path d="M2180.6 302.956L2122.52 306.532C2121.52 301.566 2119.39 297.097 2116.11 293.124C2112.84 289.052 2108.52 285.824 2103.16 283.441C2097.89 280.958 2091.59 279.716 2084.24 279.716C2074.41 279.716 2066.12 281.802 2059.37 285.973C2052.62 290.045 2049.24 295.508 2049.24 302.36C2049.24 307.823 2051.43 312.441 2055.79 316.215C2060.16 319.989 2067.66 323.018 2078.28 325.303L2119.69 333.645C2141.93 338.214 2158.51 345.563 2169.43 355.693C2180.36 365.824 2185.82 379.132 2185.82 395.619C2185.82 410.615 2181.4 423.775 2172.56 435.097C2163.82 446.419 2151.81 455.258 2136.52 461.615C2121.33 467.872 2103.8 471 2083.94 471C2053.66 471 2029.53 464.693 2011.56 452.08C1993.69 439.368 1983.21 422.087 1980.13 400.237L2042.54 396.959C2044.42 406.196 2048.99 413.247 2056.24 418.114C2063.49 422.881 2072.77 425.265 2084.09 425.265C2095.21 425.265 2104.15 423.129 2110.9 418.859C2117.75 414.489 2121.23 408.877 2121.33 402.025C2121.23 396.264 2118.79 391.547 2114.03 387.872C2109.26 384.098 2101.91 381.218 2091.99 379.231L2052.37 371.336C2030.03 366.867 2013.4 359.12 2002.47 348.096C1991.65 337.072 1986.24 323.018 1986.24 305.936C1986.24 291.237 1990.21 278.574 1998.16 267.947C2006.2 257.32 2017.47 249.127 2031.96 243.366C2046.56 237.606 2063.64 234.726 2083.2 234.726C2112.09 234.726 2134.83 240.834 2151.41 253.05C2168.09 265.266 2177.82 281.901 2180.6 302.956Z" fill="white"/>
<path d="M2225.77 466.531V237.705H2289.22V466.531H2225.77ZM2257.64 208.208C2248.21 208.208 2240.12 205.08 2233.36 198.823C2226.71 192.467 2223.39 184.869 2223.39 176.03C2223.39 167.29 2226.71 159.791 2233.36 153.534C2240.12 147.178 2248.21 144 2257.64 144C2267.07 144 2275.12 147.178 2281.77 153.534C2288.52 159.791 2291.9 167.29 2291.9 176.03C2291.9 184.869 2288.52 192.467 2281.77 198.823C2275.12 205.08 2267.07 208.208 2257.64 208.208Z" fill="white"/>
<path d="M2443.4 471C2420.27 471 2400.26 466.084 2383.38 456.251C2366.6 446.32 2353.64 432.515 2344.51 414.836C2335.37 397.059 2330.81 376.451 2330.81 353.012C2330.81 329.374 2335.37 308.717 2344.51 291.038C2353.64 273.261 2366.6 259.456 2383.38 249.623C2400.26 239.692 2420.27 234.726 2443.4 234.726C2466.54 234.726 2486.5 239.692 2503.28 249.623C2520.16 259.456 2533.16 273.261 2542.3 291.038C2551.43 308.717 2556 329.374 2556 353.012C2556 376.451 2551.43 397.059 2542.3 414.836C2533.16 432.515 2520.16 446.32 2503.28 456.251C2486.5 466.084 2466.54 471 2443.4 471ZM2443.7 421.838C2454.23 421.838 2463.01 418.859 2470.06 412.9C2477.11 406.841 2482.42 398.598 2486 388.17C2489.67 377.742 2491.51 365.873 2491.51 352.565C2491.51 339.256 2489.67 327.388 2486 316.96C2482.42 306.532 2477.11 298.288 2470.06 292.23C2463.01 286.172 2454.23 283.143 2443.7 283.143C2433.08 283.143 2424.14 286.172 2416.89 292.23C2409.74 298.288 2404.33 306.532 2400.66 316.96C2397.08 327.388 2395.3 339.256 2395.3 352.565C2395.3 365.873 2397.08 377.742 2400.66 388.17C2404.33 398.598 2409.74 406.841 2416.89 412.9C2424.14 418.859 2433.08 421.838 2443.7 421.838Z" fill="white"/>
</svg>
