<svg width="100" height="100" viewBox="0 0 100 100" fill="none" xmlns="http://www.w3.org/2000/svg">
<g clip-path="url(#clip0_7_2)">
<circle cx="49" cy="50" r="50" fill="#F37826"/>
<path fill-rule="evenodd" clip-rule="evenodd" d="M48.9872 15.0078C40.7646 15.0078 32.5612 17.8158 25.8803 23.4303C21.8594 26.8096 18.7517 30.9214 16.5934 35.4239C16.2938 35.3954 16.0023 35.3303 15.6948 35.3303C10.3242 35.3303 6 39.6612 6 45.0401V57.0407C6 62.4194 10.3242 66.7504 15.6948 66.7504C16.0024 66.7504 16.2938 66.6836 16.5934 66.6568C16.9798 67.459 17.3796 68.2553 17.8302 69.0376C19.5918 72.1865 24.2981 69.4905 22.4807 66.3732C15.0399 53.4648 17.9216 37.1077 29.3215 27.527C40.7217 17.9461 57.2805 17.9461 68.6805 27.527C80.0807 37.1077 82.9624 53.4645 75.5214 66.3732L75.4412 66.5068L75.3876 66.6404C75.3876 66.6404 71.7737 74.6478 64.6773 74.6478L55.6944 74.5672C54.852 73.3351 53.5037 72.4771 51.8939 72.4771H46.1033C43.507 72.4771 41.4183 74.5759 41.4183 77.1763C41.4183 78.7804 42.4346 79.9984 44.76 79.9984L64.6772 80C75.3263 80 79.932 69.529 80.1417 69.0445V69.0159C80.5883 68.2404 80.9814 67.4442 81.3652 66.6491C81.6781 66.6776 81.983 66.7427 82.3052 66.7427C87.6758 66.7427 92 62.4118 92 57.033V45.0324C92 39.6536 87.6758 35.3226 82.3052 35.3226C81.995 35.3226 81.7022 35.374 81.4 35.4162C79.2467 30.9134 76.1483 26.8021 72.1268 23.4225C65.4462 17.808 57.2083 15 48.9854 15L48.9872 15.0078ZM37.3026 32.0674C35.2155 31.9309 33.3091 32.3729 31.6433 34.1298C27.2012 38.8138 24.4569 45.1891 24.4569 51.9784C24.4569 57.5786 26.3256 63.8537 29.4735 64.0827C33.9582 64.4094 41.0352 61.4598 49.0011 61.4598C57.4425 61.4598 64.8917 64.7694 69.3094 63.9859C71.9867 63.5119 73.5521 57.1022 73.5521 51.9784C73.5521 45.1891 70.8011 38.8138 66.3589 34.1298C61.9167 29.4457 55.7797 34.1298 49.0011 34.1298C44.7644 34.1298 40.7808 32.2961 37.3026 32.0674ZM36.3077 43.6111C38.7841 43.6121 40.7915 45.6225 40.7923 48.1028C40.7915 50.5832 38.7841 52.5935 36.3077 52.5944C33.8313 52.5935 31.824 50.5832 31.8232 48.1028C31.824 45.6225 33.8313 43.6121 36.3077 43.6111ZM61.6948 43.6111C64.1714 43.6121 66.1786 45.6225 66.1795 48.1028C66.1786 50.5832 64.1714 52.5935 61.6948 52.5944C59.2184 52.5935 57.2112 50.5832 57.2103 48.1028C57.2112 45.6225 59.2184 43.6121 61.6948 43.6111Z" fill="white"/>
</g>
<defs>
<clipPath id="clip0_7_2">
<rect width="100" height="100" fill="white"/>
</clipPath>
</defs>
</svg>
