<svg width="822" height="728" viewBox="0 0 822 728" fill="none" xmlns="http://www.w3.org/2000/svg">
<path d="M373.54 204.567C436.741 203.958 494.377 205.421 556.32 223.839L559.273 224.729L559.518 224.804L559.757 224.894C566.331 227.37 571.796 229.52 578.207 232.408L579.502 232.996L579.619 233.049L579.733 233.106C602.656 244.482 621.24 257.329 636.212 273.811C650.773 289.84 661.616 308.977 669.865 332.842C686.714 332.641 703.29 333.966 718.779 348.285L719.604 349.06L719.611 349.067C733.716 362.602 739.043 378.986 740.983 395.366C742.851 411.132 741.642 428.63 741.845 442.926C742.197 467.871 743.393 494.225 721.917 516.792V516.793C711.852 527.366 702.014 531.952 691.438 533.765C686.371 534.633 681.287 534.84 676.308 534.906C672.883 534.952 669.632 534.934 666.23 534.976C650.347 576.51 613.971 609.711 573.801 625.949L571.804 626.741C510.052 650.769 442.047 651.09 378.615 650.992H378.614C313.629 650.889 243.295 651.078 180.23 625.072L180.209 625.062L180.188 625.054C136.848 606.885 108.35 577.225 90.207 535.443C68.2766 536.692 45.7296 532.613 29.9854 512.28L29.1738 511.21C19.4823 498.149 15.9872 484.148 14.7686 470.37C14.1638 463.532 14.1135 456.661 14.166 449.993C14.2194 443.209 14.3747 436.785 14.2354 430.268C13.6307 402.022 12.4691 366.026 42.3281 343.919L42.3311 343.917C54.5252 334.897 71.7722 331.744 86.4111 332.646C107.851 270.605 151.961 238.664 203.924 222.337C257.026 205.652 318.868 205.094 373.54 204.567ZM432.826 245.303C406.828 244.353 380.812 244.038 354.798 244.358C353.116 244.394 351.436 244.442 349.755 244.502L349.628 244.506C316.883 245.148 278.725 246.331 242.803 253.473C206.82 260.627 174.079 273.577 151.424 296.997C116.199 333.411 110.787 390.342 111.896 441.857C112.858 486.499 122.339 531.786 153.992 562.151V562.152C181.021 588.084 224.144 600.891 271.302 606.846C318.2 612.767 367.412 611.738 405.535 611.28L411.746 611.176C443.093 610.609 478.732 609.283 512.454 602.717C548.481 595.702 581.343 582.882 604.28 559.556L605.072 558.742C638.382 524.183 645.117 472.839 644.394 423.956L644.355 421.755C643.435 375.494 635.069 326.312 602.443 294.986C581.695 275.068 554.085 263.207 523.971 256.05C493.884 248.899 461.899 246.575 432.826 245.303ZM77.1064 370.755C75.4537 370.759 74.0539 370.801 72.7256 370.966L72.0391 371.062C61.3887 372.762 54.6465 382.681 52.3115 395.837C51.2394 401.879 50.9827 408.155 50.9893 414.832C50.9955 421.132 51.2612 428.616 51.1279 435.413C51.1249 448.52 50.4804 460.071 51.9092 471.96C52.904 480.238 56.4738 487.53 62.4111 492.8L62.9932 493.304V493.305C64.7451 494.783 68.7385 496.494 74.0303 497.477C75.6606 497.779 77.245 497.981 78.7314 498.096C70.7026 458.09 70.4297 410.946 77.1064 370.755ZM679.069 370.464C685.171 408.722 685.503 459.018 677.492 497.571C678.611 497.575 679.615 497.576 680.425 497.562H680.428C691.918 497.374 701.387 486.839 703.828 473.428V473.427C705.874 462.2 704.913 450.521 705.045 437.11L705.077 432.943C705.132 423.215 705.046 413.187 704.805 403.547C704.224 392.522 700.633 381.649 693.63 375.566L693.629 375.565C689.345 371.844 684.982 370.624 679.069 370.464Z" fill="white" stroke="white" stroke-width="16"/>
<path d="M40.5469 341.504C55.544 330.411 77.4063 327.834 93.7207 330.428L105.663 332.326L102.646 344.036C100.856 350.982 99.1321 357.939 97.4766 364.913L95.7168 372.326L88.1582 373.285L86.9521 373.438L86.8486 373.45C83.6033 373.831 80.3994 373.766 78.1943 373.754C76.0431 373.743 74.4921 373.769 73.0996 373.941L72.5117 374.024C63.764 375.42 57.5161 383.676 55.2646 396.36C54.2384 402.144 53.9828 408.214 53.9893 414.828C53.9953 420.94 54.2616 428.673 54.1279 435.479C54.1228 448.768 53.4898 459.969 54.8877 471.602C55.8046 479.231 59.0699 485.824 64.4043 490.559L64.9277 491.011L64.9287 491.012C66.0939 491.995 69.4811 493.58 74.5771 494.526C79.5464 495.449 83.7975 495.33 85.792 494.816L96.2236 492.132L99.127 502.505C100.086 505.932 101.225 509.36 102.438 512.99C103.62 516.525 104.895 520.32 105.942 524.051L109.49 536.695L96.4199 537.971C72.3454 540.319 45.7383 537.519 27.6211 514.127L26.7646 512.997C16.635 499.346 13.0287 484.748 11.7803 470.634C11.1623 463.646 11.1134 456.658 11.166 449.97C11.2199 443.122 11.3744 436.791 11.2363 430.332C10.6391 402.435 9.24079 364.682 40.543 341.507L40.5469 341.504Z" fill="#FE781A" stroke="#FE781A" stroke-width="22"/>
<path d="M663.798 329.958C682.67 329.509 702.512 329.168 720.807 346.074L721.677 346.892L721.683 346.897L721.689 346.903C736.461 361.078 741.973 378.213 743.963 395.013C745.853 410.969 744.647 428.978 744.844 442.883L744.915 447.552C745.269 471.052 745.134 496.746 724.09 518.86L724.089 518.861C713.583 529.898 703.162 534.799 691.944 536.721C686.64 537.63 681.367 537.838 676.348 537.905C671.06 537.975 666.428 537.896 660.965 538.1L644.254 538.725L650.297 523.133C652.828 516.602 654.961 509.926 656.673 503.14L658.552 495.691L666.193 494.89C670.657 494.422 677.418 494.613 680.374 494.563H680.378C689.884 494.407 698.577 485.52 700.876 472.89L700.877 472.888C702.861 461.997 701.91 450.854 702.045 437.081V437.08C702.154 426.118 702.082 414.64 701.808 403.669C701.241 393.032 697.778 383.142 691.663 377.832L691.661 377.83C686.483 373.33 681.299 373.025 670.311 373.747L660.754 374.375L658.818 364.995C657.436 358.305 655.374 351.147 653.424 343.763L649.866 330.29L663.798 329.958Z" fill="#FE781A" stroke="#FE781A" stroke-width="22"/>
<path d="M239.194 361.313C265.424 357.929 292.866 382.511 290.105 409.387C289.475 415.525 283.277 418.952 277.455 417.104C268.655 414.32 270.876 401.542 266.182 395.135C260.803 387.247 256.971 384.971 248.107 382.633C244.322 382.321 240.676 382.29 236.905 383.086C228.077 384.91 220.978 391.831 218.189 400.318C216.227 406.291 215.6 416.186 207.73 417.385C202.295 418.218 196.234 414.008 196.065 408.274C195.742 397.344 200.045 386.262 207.043 377.933C215.129 368.344 226.696 362.366 239.194 361.313Z" fill="#FE781A" stroke="#FE781A" stroke-width="24"/>
<path d="M446.736 361.325C449.856 361.019 454.365 361.252 457.461 361.729C469.892 363.65 481.014 370.516 488.301 380.767C494.143 388.924 502.849 408.457 492.008 416.859C490.546 417.991 488.203 418.101 486.38 417.685C474.254 414.913 478.157 401.964 472.407 393.899C467.408 386.635 461.694 384.206 453.717 382.468C438.716 382.064 428.322 387.755 424.058 403.017C423.164 406.211 422.522 409.718 420.974 412.637C416.398 421.289 402.823 417.636 402.627 407.955C402.284 397.271 406.983 386.311 413.712 378.141C422.192 367.842 433.656 362.561 446.736 361.325Z" fill="#FE781A" stroke="#FE781A" stroke-width="24"/>
<path d="M579.927 159.52C574.146 155.099 569.692 151.215 565.856 144.956C548.788 117.073 566.438 81.3903 598.507 77.1526C610.015 75.6166 621.657 78.7871 630.803 85.9468C640.579 93.5325 646.832 104.789 648.11 117.102C649.297 128.728 645.737 140.341 638.236 149.303C630.711 158.416 618.977 164.531 607.225 165.567C604.711 165.793 602.178 165.847 599.657 165.731C595.32 181.432 589.704 197.795 584.797 213.429C582.723 220.04 578.655 234.283 576.177 240.272C569.429 237.188 563.868 234.99 556.937 232.38C559.653 225.526 562.7 214.347 564.927 207.06C569.723 191.15 574.721 175.302 579.927 159.52ZM608.498 144.366C616.787 142.634 623.492 136.564 626.037 128.49C628.582 120.416 626.576 111.596 620.782 105.422C614.995 99.248 606.32 96.6815 598.103 98.7107C585.709 101.77 578.049 114.197 580.888 126.645C583.721 139.095 596.005 146.977 608.498 144.366Z" fill="#FE781A"/>
<path d="M610.21 0C625.328 0.725766 622.893 14.4413 621.675 25.7855C620.427 37.3941 623.431 49.8306 611.66 54.9758C599.639 55.0713 599.253 46.8021 599.939 37.1107C600.648 27.0773 600.746 16.107 602.814 6.27855C603.481 3.1301 607.659 1.24347 610.21 0Z" fill="#FE781A"/>
<path d="M683.172 43.4814C685.496 43.4925 687.43 43.6209 689.571 44.6998C691.779 45.8191 693.431 47.7957 694.147 50.1682C696.429 57.6614 688.427 64.5323 683.104 68.532C678.106 72.2875 671.468 79.0893 665.669 80.9673C656.755 80.5744 650.521 74.5658 655.929 66.0928C659.82 60.0076 676.675 45.2634 683.172 43.4814Z" fill="#FE781A"/>
<path d="M530.294 37.8068C539.018 37.3007 542.976 42.9043 548.867 48.5079C557.145 56.3873 568.505 67.3967 553.535 75.4836C544.034 76.1212 537.684 66.3332 531.138 60.4549C523.001 53.1452 518.547 43.8608 530.294 37.8068Z" fill="#FE781A"/>
</svg>
